<svg id="Layer_1" data-name="Layer 1" xmlns="http://www.w3.org/2000/svg" viewBox="0 0 71.23 12.35"><defs><style>.cls-1{fill:#111;}</style></defs><path class="cls-1" d="M12.29,0V6.16a6.15,6.15,0,0,1-4.91,6H4.91A6.15,6.15,0,0,1,0,6.27V6H0V0l2.58,2.6V6.05h0v.08A3.61,3.61,0,0,0,6.05,9.74h.14A3.62,3.62,0,0,0,9.81,6.12h0V6h0L9.73,2.58Z" transform="translate(0 0.02)"/><path class="cls-1" d="M5.58,12.12Z" transform="translate(0 0.02)"/><path class="cls-1" d="M5.33,12.18l.26-.06Z" transform="translate(0 0.02)"/><path class="cls-1" d="M18,0,11.84,12.31h2.62L18,5.14l3.52,7.17h2.62Z" transform="translate(0 0.02)"/><path class="cls-1" d="M25.66,0,27.2,2.58h4.87a1.27,1.27,0,0,1,1.27,1.27h0a1.27,1.27,0,0,1-1.26,1.28H28.81a3.11,3.11,0,0,0-3.14,3.08v4.12h2.56V8.46A.76.76,0,0,1,29,7.68h3.09A3.84,3.84,0,0,0,35.9,3.84h0A3.84,3.84,0,0,0,32.06,0h0Z" transform="translate(0 0.02)"/><path class="cls-1" d="M37.44,0,39,2.58h4.87a1.27,1.27,0,0,1,1.28,1.26h0a1.28,1.28,0,0,1-1.28,1.28H40.58a3.11,3.11,0,0,0-3.14,3.08v4.12H40V8.46a.76.76,0,0,1,.76-.76h3.08a3.84,3.84,0,0,0,3.84-3.84h0A3.84,3.84,0,0,0,43.84,0h-6.4Z" transform="translate(0 0.02)"/><path class="cls-1" d="M59.46,7.41H51.74a2.53,2.53,0,0,1-2.53-2.53H56.9A2.57,2.57,0,0,1,59.46,7.41Z" transform="translate(0 0.02)"/><path class="cls-1" d="M59.46,12.31H51.74a2.54,2.54,0,0,1-2.53-2.54H56.9A2.55,2.55,0,0,1,59.46,12.31Z" transform="translate(0 0.02)"/><path class="cls-1" d="M59.46,2.55H51.75A2.54,2.54,0,0,1,49.21,0H57a2.52,2.52,0,0,1,2.51,2.53Z" transform="translate(0 0.02)"/><path class="cls-1" d="M71.23,0,67.58,6.16c-.48.81-1,1.62-1.45,2.43l-2.22,3.72H61l3.67-6.15c.49-.81,1-1.62,1.45-2.43L68.35,0Z" transform="translate(0 0.02)"/><path class="cls-1" d="M65.45,2.68c-.48.81-1,1.62-1.45,2.43q-1.5-2.52-3-5h2.9Z" transform="translate(0 0.02)"/><path class="cls-1" d="M66.11,3.73c-.48.81-1,1.62-1.45,2.43h0l1.45-2.48Z" transform="translate(0 0.02)"/><path class="cls-1" d="M67.58,6.16,66.13,8.59h0C66.62,7.78,67.13,7,67.58,6.16Z" transform="translate(0 0.02)"/><path class="cls-1" d="M71.23,12.31h-2.9L66.77,9.68c.48-.81,1-1.62,1.45-2.43Z" transform="translate(0 0.02)"/></svg>