<svg id="Layer_1" data-name="Layer 1" xmlns="http://www.w3.org/2000/svg" viewBox="0 0 71.23 12.31"><defs><style>.cls-1{fill:#fff;}</style></defs><path class="cls-1" d="M17.71,7.34v6.14a6.15,6.15,0,0,1-4.91,6l-.15,0-.14,0h0l-.11,0H10.77l-.11,0h-.05l-.13,0-.15,0a6.15,6.15,0,0,1-4.91-5.89v-.29h0q0-3,0-6L8,9.9v3.47H8v.08a3.61,3.61,0,0,0,3.47,3.61h.14a3.62,3.62,0,0,0,3.62-3.62s0,0,0-.08h0L15.15,9.9Z" transform="translate(-5.42 -7.32)"/><path class="cls-1" d="M11,19.44h0Z" transform="translate(-5.42 -7.32)"/><path class="cls-1" d="M10.75,19.5l.26-.06Z" transform="translate(-5.42 -7.32)"/><path class="cls-1" d="M23.4,7.34,17.26,19.63h2.62l3.52-7.17,3.52,7.17h2.62Z" transform="translate(-5.42 -7.32)"/><path class="cls-1" d="M31.08,7.34,32.62,9.9h4.87a1.27,1.27,0,0,1,1.27,1.27h0a1.27,1.27,0,0,1-1.27,1.28h0l-3.26,0a3.11,3.11,0,0,0-3.14,3.11v4.09h2.56V15.78A.76.76,0,0,1,34.4,15h3.08a3.84,3.84,0,0,0,3.84-3.84h0a3.84,3.84,0,0,0-3.84-3.84Z" transform="translate(-5.42 -7.32)"/><path class="cls-1" d="M42.86,7.34,44.39,9.9h4.87a1.27,1.27,0,0,1,1.28,1.27h0a1.28,1.28,0,0,1-1.28,1.28h0l-3.26,0a3.11,3.11,0,0,0-3.14,3.11v4.09h2.56V15.78a.76.76,0,0,1,.76-.76h3.08a3.84,3.84,0,0,0,3.84-3.84h0a3.84,3.84,0,0,0-3.84-3.84Z" transform="translate(-5.42 -7.32)"/><path class="cls-1" d="M64.88,14.73H57.16a2.53,2.53,0,0,1-2.53-2.53v0h7.69A2.56,2.56,0,0,1,64.88,14.73Z" transform="translate(-5.42 -7.32)"/><path class="cls-1" d="M64.88,19.63H57.16a2.54,2.54,0,0,1-2.53-2.54v0h7.69A2.56,2.56,0,0,1,64.88,19.63Z" transform="translate(-5.42 -7.32)"/><path class="cls-1" d="M64.88,9.87v0H57.17a2.54,2.54,0,0,1-2.54-2.54v0h7.74A2.52,2.52,0,0,1,64.88,9.87Z" transform="translate(-5.42 -7.32)"/><path class="cls-1" d="M76.65,7.34,73,13.48c-.48.81-1,1.62-1.45,2.43l-2.22,3.72h-2.9l3.67-6.15c.49-.81,1-1.62,1.45-2.43l2.22-3.71Z" transform="translate(-5.42 -7.32)"/><path class="cls-1" d="M70.87,10c-.48.81-1,1.62-1.45,2.43q-1.5-2.52-3-5h2.9Z" transform="translate(-5.42 -7.32)"/><path class="cls-1" d="M71.53,11.05c-.48.81-1,1.62-1.45,2.43h0L71.53,11Z" transform="translate(-5.42 -7.32)"/><path class="cls-1" d="M73,13.48l-1.45,2.43h0c.49-.81,1-1.62,1.45-2.43Z" transform="translate(-5.42 -7.32)"/><path class="cls-1" d="M76.65,19.63h-2.9L72.19,17c.48-.81,1-1.62,1.45-2.43C74.64,16.26,75.65,17.94,76.65,19.63Z" transform="translate(-5.42 -7.32)"/></svg>